<?xml version="1.0" encoding="utf-8"?>
<!-- Generator: Adobe Illustrator 24.0.3, SVG Export Plug-In . SVG Version: 6.00 Build 0)  -->
<svg version="1.1" id="Layer_1" xmlns="http://www.w3.org/2000/svg" xmlns:xlink="http://www.w3.org/1999/xlink" x="0px" y="0px"
	 viewBox="0 0 288 288" style="enable-background:new 0 0 288 288;" xml:space="preserve">
<g>
	<path d="M55.3,272.4L4.4,287.6v-12.5l34.7-9v-0.2l-34.7-9v-11.4l50.9,15.1h25.2v12H55.3z"/>
	<path d="M22.7,245.4c-12.2,0-19.1-6.4-19.1-18.2c0-11.7,7-18.2,19.1-18.2h39.6c12.2,0,19.1,6.4,19.1,18.2c0,11.7-7,18.2-19.1,18.2
		H22.7z M63,233.4c5.4,0,7.5-2.4,7.5-6.2c0-3.8-2.1-6.2-7.5-6.2H21.9c-5.4,0-7.5,2.4-7.5,6.2c0,3.8,2.1,6.2,7.5,6.2H63z"/>
	<path d="M22.7,204.5c-12.2,0-19.1-6.4-19.1-18.2c0-11.7,7-18.2,19.1-18.2h39.6c12.2,0,19.1,6.4,19.1,18.2c0,11.7-7,18.2-19.1,18.2
		H22.7z M63,192.5c5.4,0,7.5-2.4,7.5-6.2c0-3.8-2.1-6.2-7.5-6.2H21.9c-5.4,0-7.5,2.4-7.5,6.2c0,3.8,2.1,6.2,7.5,6.2H63z"/>
	<path d="M25.4,151.7v0.2h55.2v10.8H4.4v-15L50,135.6v-0.2H4.4v-10.7h76.1V137L25.4,151.7z"/>
	<path d="M3.5,102.2c0-11.6,7-17.6,19.1-17.6h2.4v11.3h-3.2c-5.4,0-7.5,2.2-7.5,6c0,3.8,2.1,6,7.5,6c5.5,0,9.7-2.4,16.5-10.2
		c8.8-10,15.1-13.2,23.8-13.2c12.2,0,19.1,6.1,19.1,17.8s-7,17.8-19.1,17.8h-4.7v-11.3H63c5.4,0,7.4-2.4,7.4-6.2
		c0-3.8-2-6.2-7.4-6.2c-5.5,0-9.7,2.4-16.5,10.2c-8.8,10-15.1,13.2-23.8,13.2C10.5,119.8,3.5,113.8,3.5,102.2z"/>
	<path d="M4.4,68.4h58.7c5.4,0,7.4-2.4,7.4-6.2c0-3.8-2-6.2-7.4-6.2H4.4V44.6h58c12.2,0,19.1,6.1,19.1,17.8c0,11.7-7,17.8-19.1,17.8
		h-58V68.4z"/>
	<path d="M25.4,27.8V28h55.2v10.8H4.4v-15L50,11.7v-0.2H4.4V0.8h76.1v12.3L25.4,27.8z"/>
	<path d="M83.1,283.6v-12h65.3V252h10.9v31.7H83.1z"/>
	<path d="M115.2,234.8v-16.4h10.9v16.4h22.3v-20.7h10.9v32.6H83.1v-32.6H94v20.7H115.2z"/>
	<path d="M115.2,196.9v-16.4h10.9v16.4h22.3v-20.7h10.9v32.6H83.1v-32.6H94v20.7H115.2z"/>
</g>
</svg>
